{
	"materials":[{
		"pbrMetallicRoughness":{
			"baseColorFactor":[0.11200000000000002,
			0.22666666666666686,
			0.8,
			1.0],
			"metallicFactor":0.0,
			"roughnessFactor":0.5
		},
		"doubleSided":false,
		"emissiveFactor":[0.0,
		0.0,
		0.0],
		"alphaMode":"OPAQUE",
		"name":"Mat"
	},
	{
		"pbrMetallicRoughness":{
			"baseColorFactor":[0.2018088587698731,
			0.9035532994923858,
			0.7632044113478832,
			1.0],
			"metallicFactor":0.0,
			"roughnessFactor":0.4
		},
		"doubleSided":false,
		"emissiveFactor":[0.0,
		0.0,
		0.0],
		"alphaMode":"OPAQUE",
		"name":"Sky"
	}],
	"buffers":[{
		"uri":"data:application/octet-stream;base64,",
		"byteLength":100
	},
	{
		"uri":"data:application/octet-stream;base64,",
		"byteLength":1160
	},
	{
		"uri":"data:application/octet-stream;base64,",
		"byteLength":444592
	},
	{
		"uri":"data:application/octet-stream;base64,",
		"byteLength":100
	},
	{
		"uri":"data:application/octet-stream;base64,",
		"byteLength":1160
	}],
	"asset":{
		"version":"2.0",
		"generator":"Created using the official Cinema 4D glTF Exporter 1.000x284978"
	},
	"scenes":[{
		"nodes":[0,
		4,
		5,
		7,
		8]
	}],
	"meshes":[{
		"name":"Pyramid",
		"primitives":[{
			"attributes":{
				"POSITION":3,
				"NORMAL":4,
				"TEXCOORD_0":5
			},
			"indices":2,
			"material":0
		}]
	},
	{
		"name":"Extrude.1",
		"primitives":[{
			"attributes":{
				"POSITION":7,
				"NORMAL":8,
				"TEXCOORD_0":9
			},
			"indices":6,
			"material":1
		}]
	},
	{
		"name":"Pyramid",
		"primitives":[{
			"attributes":{
				"POSITION":13,
				"NORMAL":14,
				"TEXCOORD_0":15
			},
			"indices":12,
			"material":0
		}]
	}],
	"nodes":[{
		"scale":[1.0,
		1.0,
		1.0],
		"name":"Null.5",
		"translation":[1.1114444732666016,
		-3.1875176429748537,
		0.43540269136428835],
		"rotation":[0.8969955444335938,
		-0.3039647042751312,
		0.3039647042751312,
		-0.10300444811582566],
		"children":[1]
	},
	{
		"scale":[1.0,
		1.0,
		1.0],
		"name":"Subdivision Surface",
		"translation":[-1.1283406019210816,
		-0.3895275890827179,
		-3.1875176429748537],
		"rotation":[0.0,
		0.0,
		0.0,
		-1.0],
		"children":[2]
	},
	{
		"scale":[1.0,
		1.0,
		1.0],
		"name":"Symmetry.1",
		"translation":[29.590517044067384,
		0.0,
		0.0],
		"rotation":[0.0,
		0.0,
		0.0,
		-1.0],
		"children":[3]
	},
	{
		"scale":[0.699999988079071,
		1.0,
		1.0],
		"name":"Pyramid",
		"translation":[70.00122833251953,
		-518.9488525390625,
		1079.4388427734376],
		"rotation":[0.0,
		0.0,
		0.0,
		-1.0],
		"mesh":0
	},
	{
		"scale":[1.0,
		1.0,
		1.0],
		"name":"Camera.1",
		"translation":[-244.15994262695313,
		508.9868469238281,
		4019.65380859375],
		"rotation":[0.07123393565416336,
		-0.009929814375936985,
		0.00013042242790106684,
		-0.9974101781845093],
		"camera":0
	},
	{
		"name":"Extrude.1",
		"children":[6]
	},
	{
		"name":"Extrude.1",
		"mesh":1
	},
	{
		"scale":[1.0,
		1.0,
		1.0],
		"name":"Camera",
		"translation":[-1179.584716796875,
		3305.450439453125,
		356.8363037109375],
		"rotation":[0.4772492051124573,
		-0.4627012610435486,
		-0.6703128218650818,
		-0.329880952835083],
		"camera":1
	},
	{
		"scale":[1.0,
		1.0,
		1.0],
		"name":"Null.4",
		"translation":[0.0,
		0.0,
		0.0],
		"rotation":[0.10300444811582566,
		0.3039647042751312,
		-0.3039647042751312,
		-0.8969955444335938],
		"children":[9]
	},
	{
		"name":"Subdivision Surface",
		"children":[10]
	},
	{
		"scale":[1.0,
		1.0,
		1.0],
		"name":"Symmetry.1",
		"translation":[29.590517044067384,
		0.0,
		0.0],
		"rotation":[0.0,
		0.0,
		0.0,
		-1.0],
		"children":[11]
	},
	{
		"scale":[0.699999988079071,
		1.0,
		1.0],
		"name":"Pyramid",
		"translation":[70.00122833251953,
		-160.5565948486328,
		-328.0597229003906],
		"rotation":[0.0,
		0.0,
		0.0,
		-1.0],
		"mesh":2
	}],
	"cameras":[{
		"type":"perspective",
		"perspective":{
			"znear":0.009999999776482582,
			"zfar":10000000000.0,
			"aspectRatio":1.7777777910232545,
			"yfov":0.5483348965644836
		}
	},
	{
		"type":"perspective",
		"perspective":{
			"znear":0.009999999776482582,
			"zfar":10000000000.0,
			"aspectRatio":1.7777777910232545,
			"yfov":0.5483348965644836
		}
	}],
	"accessors":[{
		"bufferView":0,
		"type":"SCALAR",
		"componentType":5126,
		"count":5,
		"byteOffset":0,
		"min":[0.0],
		"max":[3.0]
	},
	{
		"bufferView":0,
		"type":"VEC4",
		"componentType":5126,
		"count":5,
		"byteOffset":20,
		"min":[0.0,
		-0.5,
		-0.5,
		-1.0],
		"max":[1.0,
		0.5,
		0.5,
		-3.7493993930529858e-33]
	},
	{
		"bufferView":1,
		"type":"SCALAR",
		"componentType":5123,
		"count":36,
		"byteOffset":0,
		"min":[0],
		"max":[33]
	},
	{
		"bufferView":2,
		"type":"VEC3",
		"componentType":5126,
		"count":34,
		"byteOffset":0,
		"min":[-300.0035095214844,
		-100.0,
		-100.0],
		"max":[100.0,
		100.0,
		100.0]
	},
	{
		"bufferView":2,
		"type":"VEC3",
		"componentType":5126,
		"count":34,
		"byteOffset":12,
		"min":[-1.0,
		-0.8944287300109863,
		-0.8944287300109863],
		"max":[1.0,
		0.8944287300109863,
		0.8944287300109863]
	},
	{
		"bufferView":2,
		"type":"VEC2",
		"componentType":5126,
		"count":34,
		"byteOffset":24,
		"min":[0.0,
		0.0],
		"max":[1.0,
		1.0]
	},
	{
		"bufferView":3,
		"type":"SCALAR",
		"componentType":5123,
		"count":33048,
		"byteOffset":0,
		"min":[0],
		"max":[11827]
	},
	{
		"bufferView":4,
		"type":"VEC3",
		"componentType":5126,
		"count":11828,
		"byteOffset":0,
		"min":[-961.6466064453125,
		-334.92791748046877,
		-30.0],
		"max":[517.1773681640625,
		183.1160888671875,
		0.0]
	},
	{
		"bufferView":4,
		"type":"VEC3",
		"componentType":5126,
		"count":11828,
		"byteOffset":12,
		"min":[-1.0,
		-1.0,
		-1.0],
		"max":[1.0,
		1.0,
		1.0]
	},
	{
		"bufferView":4,
		"type":"VEC2",
		"componentType":5126,
		"count":11828,
		"byteOffset":24,
		"min":[0.0,
		0.0],
		"max":[1.0,
		1.0]
	},
	{
		"bufferView":5,
		"type":"SCALAR",
		"componentType":5126,
		"count":5,
		"byteOffset":0,
		"min":[0.0],
		"max":[3.0]
	},
	{
		"bufferView":5,
		"type":"VEC4",
		"componentType":5126,
		"count":5,
		"byteOffset":20,
		"min":[0.0,
		-0.5,
		-0.5,
		-1.0],
		"max":[1.0,
		0.5,
		0.5,
		-3.7493993930529858e-33]
	},
	{
		"bufferView":6,
		"type":"SCALAR",
		"componentType":5123,
		"count":36,
		"byteOffset":0,
		"min":[0],
		"max":[33]
	},
	{
		"bufferView":7,
		"type":"VEC3",
		"componentType":5126,
		"count":34,
		"byteOffset":0,
		"min":[-300.0035095214844,
		-100.0,
		-100.0],
		"max":[100.0,
		100.0,
		100.0]
	},
	{
		"bufferView":7,
		"type":"VEC3",
		"componentType":5126,
		"count":34,
		"byteOffset":12,
		"min":[-1.0,
		-0.8944287300109863,
		-0.8944287300109863],
		"max":[1.0,
		0.8944287300109863,
		0.8944287300109863]
	},
	{
		"bufferView":7,
		"type":"VEC2",
		"componentType":5126,
		"count":34,
		"byteOffset":24,
		"min":[0.0,
		0.0],
		"max":[1.0,
		1.0]
	}],
	"bufferViews":[{
		"buffer":0,
		"byteOffset":0,
		"byteLength":100
	},
	{
		"buffer":1,
		"byteOffset":0,
		"byteLength":72,
		"target":34963
	},
	{
		"buffer":1,
		"byteOffset":72,
		"byteLength":1088,
		"target":34962,
		"byteStride":32
	},
	{
		"buffer":2,
		"byteOffset":0,
		"byteLength":66096,
		"target":34963
	},
	{
		"buffer":2,
		"byteOffset":66096,
		"byteLength":378496,
		"target":34962,
		"byteStride":32
	},
	{
		"buffer":3,
		"byteOffset":0,
		"byteLength":100
	},
	{
		"buffer":4,
		"byteOffset":0,
		"byteLength":72,
		"target":34963
	},
	{
		"buffer":4,
		"byteOffset":72,
		"byteLength":1088,
		"target":34962,
		"byteStride":32
	}],
	"animations":[{
		"samplers":[{
			"input":0,
			"interpolation":"LINEAR",
			"output":1
		},
		{
			"input":10,
			"interpolation":"LINEAR",
			"output":11
		}],
		"channels":[{
			"sampler":0,
			"target":{
				"node":0,
				"path":"rotation"
			}
		},
		{
			"sampler":1,
			"target":{
				"node":8,
				"path":"rotation"
			}
		}]
	}]
}